<?xml version="1.0" encoding="UTF-8" standalone="no"?>
<svg
   xmlns:dc="http://purl.org/dc/elements/1.1/"
   xmlns:cc="http://creativecommons.org/ns#"
   xmlns:rdf="http://www.w3.org/1999/02/22-rdf-syntax-ns#"
   xmlns:svg="http://www.w3.org/2000/svg"
   xmlns="http://www.w3.org/2000/svg"
   xmlns:sodipodi="http://sodipodi.sourceforge.net/DTD/sodipodi-0.dtd"
   xmlns:inkscape="http://www.inkscape.org/namespaces/inkscape"
   inkscape:version="1.0 (4035a4fb49, 2020-05-01)"
   sodipodi:docname="enter_number.svg"
   id="svg2756"
   version="1.1"
   width="24"
   viewBox="0 0 24 24"
   height="24">
  <g
     transform="matrix(0.87480043,0,0,0.89170028,1.5023949,1.3121579)"
     style="font-style:normal;font-variant:normal;font-weight:bold;font-stretch:normal;font-size:21.3333px;line-height:1.25;font-family:Roboto;-inkscape-font-specification:'Roboto Bold';letter-spacing:0px;word-spacing:0px;fill:#000000;fill-opacity:1;stroke:none"
     id="text849"
     aria-label="9">
    <path
       id="path851"
       d="m 14.062497,13.668066 q -1.177082,1.156248 -2.749996,1.156248 -2.0104132,0 -3.2187446,-1.374998 -1.2083315,-1.385414 -1.2083315,-3.7291604 0,-1.4895809 0.6458324,-2.7291623 0.6562489,-1.249998 1.8229137,-1.937497 1.166665,-0.6979155 2.624996,-0.6979155 1.499998,0 2.666662,0.7499988 1.166665,0.7499988 1.812497,2.1562466 0.645833,1.4062478 0.656249,3.2187448 v 1.114582 q 0,3.79166 -1.885413,5.958324 -1.885414,2.166663 -5.3437418,2.312496 L 9.145838,19.87639 v -2.510413 l 0.6666657,-0.01042 q 3.9270773,-0.177083 4.2499933,-3.687494 z m -2.010414,-1.145831 q 0.729166,0 1.249998,-0.375 0.53125,-0.374999 0.802083,-0.906248 v -1.239582 q 0,-1.5312474 -0.583333,-2.3749961 -0.583332,-0.8437486 -1.562497,-0.8437486 -0.906249,0 -1.489581,0.833332 -0.5833328,0.8229154 -0.5833328,2.0729134 0,1.2395813 0.5624988,2.0416633 0.572916,0.791666 1.604164,0.791666 z" />
  </g>
  <metadata
     id="metadata2762">
    <rdf:RDF>
      <cc:Work
         rdf:about="">
        <dc:format>image/svg+xml</dc:format>
        <dc:type
           rdf:resource="http://purl.org/dc/dcmitype/StillImage" />
        <dc:title></dc:title>
      </cc:Work>
    </rdf:RDF>
  </metadata>
  <defs
     id="defs2760" />
  <sodipodi:namedview
     inkscape:current-layer="svg2756"
     inkscape:window-maximized="0"
     inkscape:window-y="122"
     inkscape:window-x="939"
     inkscape:cy="9.3735753"
     inkscape:cx="12.475164"
     inkscape:zoom="24.986624"
     inkscape:guide-bbox="true"
     showguides="true"
     showgrid="false"
     id="namedview2758"
     inkscape:window-height="1198"
     inkscape:window-width="1375"
     inkscape:pageshadow="2"
     inkscape:pageopacity="0"
     guidetolerance="10"
     gridtolerance="10"
     objecttolerance="10"
     borderopacity="1"
     bordercolor="#666666"
     pagecolor="#ffffff"
     inkscape:document-rotation="0">
    <sodipodi:guide
       id="guide2764"
       orientation="0,-1"
       position="25.767605,23.014188" />
    <sodipodi:guide
       id="guide2766"
       orientation="0,-1"
       position="28.187105,1.0012642" />
    <sodipodi:guide
       id="guide2770"
       orientation="1,0"
       position="0.83414848,19.920256" />
    <sodipodi:guide
       id="guide2772"
       orientation="1,0"
       position="22.992165,22.801859" />
  </sodipodi:namedview>
  <path
     id="path2752"
     fill="none"
     d="M0 0h24v24H0z" />
  <path
     style="stroke-width:1.2257"
     sodipodi:nodetypes="sssssssssccccc"
     id="path2754"
     d="M 20.471787,0.985812 H 3.3119712 c -1.348272,0 -2.45140284,1.103131 -2.45140284,2.4514024 V 20.597032 c 0,1.348271 1.10313084,2.451402 2.45140284,2.451402 H 20.471787 c 1.348271,0 2.451402,-1.103131 2.451402,-2.451402 V 3.4372144 c 0,-1.3482714 -1.103131,-2.4514024 -2.451402,-2.4514024 z m 0,19.61122 H 3.3119712 V 3.4372144 H 20.471787 Z" />
</svg>
